Coordinates
version=1
nRows=26
nColumns=24
inDegrees=yes

Units are S.I. units (second, meters, Newtons, ...)
If the header above contains a line with 'inDegrees', this indicates whether rotational values are in degrees (yes) or radians (no).

endheader
time	pelvis_tilt	pelvis_list	pelvis_rotation	pelvis_tx	pelvis_ty	pelvis_tz	hip_flexion_r	hip_adduction_r	hip_rotation_r	knee_angle_r	ankle_angle_r	subtalar_angle_r	mtp_angle_r	hip_flexion_l	hip_adduction_l	hip_rotation_l	knee_angle_l	ankle_angle_l	subtalar_angle_l	mtp_angle_l	lumbar_extension	lumbar_bending	lumbar_rotation
      0.00000000	      2.09681737	      2.04374431	     -0.17275718	     -1.33064564	      0.73771992	      0.34938133	     22.22551575	     -4.14087721	     -7.26826565	    -72.82357839	     -1.97799843	    -12.08532167	      0.00000000	      6.37282566	      3.47642903	    -13.02043244	    -15.42736857	      9.68837494	     -8.23329035	      0.00000000	    -11.00257932	     -5.93312964	     12.92187992
      0.00666667	      2.12407647	      1.92746824	      0.05676490	     -1.32313038	      0.73812147	      0.34909271	     23.33239472	     -4.00432511	     -7.50682598	    -72.52801222	     -1.61000910	    -12.20975306	      0.00000000	      5.56600624	      3.39368147	    -13.07410234	    -15.17462425	      9.86706230	     -8.16422742	      0.00000000	    -11.09633683	     -5.77439224	     12.74040954
      0.01333333	      2.13599153	      1.80653060	      0.34845690	     -1.31520872	      0.73853624	      0.34876705	     24.20943559	     -3.84213716	     -7.72794707	    -71.85385642	     -0.80700635	    -12.47669498	      0.00000000	      4.57999617	      3.34508232	    -12.86456582	    -14.60953284	     10.32515434	     -7.90734567	      0.00000000	    -11.07640840	     -5.62865828	     12.24154344
      0.02000000	      2.32696133	      1.68157702	      0.75046014	     -1.30727795	      0.73899582	      0.34838016	     24.82502523	     -3.78389455	     -8.18104016	    -71.06885062	      0.01244852	    -12.69781384	      0.00000000	      3.45704895	      3.27244933	    -12.60115123	    -14.15533844	     10.84491213	     -7.46970570	      0.00000000	    -11.30432985	     -5.46147647	     11.52131385
      0.02666667	      2.56717863	      1.53260353	      1.28121401	     -1.29935886	      0.73945108	      0.34780864	     25.27973935	     -3.81312654	     -8.79317585	    -70.08756080	      0.65768596	    -12.82754489	      0.00000000	      2.36818508	      3.12767486	    -12.41453176	    -13.84886537	     11.39471727	     -6.81966164	      0.00000000	    -11.61759891	     -5.23030960	     10.67899505
      0.03333333	      2.67865761	      1.40683367	      1.70574285	     -1.29154167	      0.73962815	      0.34739100	     25.87719619	     -3.80719718	     -9.26408971	    -68.99291816	      1.17444199	    -13.14136125	      0.00000000	      1.44482085	      2.98987235	    -12.31708031	    -13.58092636	     11.93738296	     -6.27252405	      0.00000000	    -11.76830379	     -5.03799883	     10.06658670
      0.04000000	      2.65827751	      1.32607908	      1.98690870	     -1.28383991	      0.73949017	      0.34709285	     26.65268871	     -3.79913909	     -9.57171589	    -67.85238495	      1.64221976	    -13.49250626	      0.00000000	      0.63784205	      2.91658966	    -12.28910940	    -13.24028937	     12.34680336	     -6.06630701	      0.00000000	    -11.76174804	     -4.90316714	      9.73671414
      0.04666667	      2.87086865	      1.19333485	      2.48652964	     -1.27599135	      0.73962662	      0.34666137	     26.95173422	     -3.84263760	    -10.17922034	    -66.38278727	      2.00704274	    -14.00241040	      0.00000000	     -0.38780522	      2.73575580	    -12.10399950	    -12.98802456	     12.93271160	     -5.42287952	      0.00000000	    -12.05008179	     -4.69283491	      8.96537651
      0.05333333	      2.92392460	      1.12948496	      2.83487487	     -1.26829018	      0.73940734	      0.34631225	     27.45943621	     -3.89146453	    -10.55863680	    -64.87621865	      2.42279837	    -14.43556487	      0.00000000	     -1.23583865	      2.64808924	    -11.99892849	    -12.73295481	     13.43331588	     -5.08869443	      0.00000000	    -12.15380676	     -4.55893917	      8.51801536
      0.06000000	      2.99171430	      1.06127518	      3.20276932	     -1.26058760	      0.73913540	      0.34599858	     27.86587698	     -3.97174209	    -11.03217588	    -63.19690708	      2.76294174	    -14.82880376	      0.00000000	     -2.10401909	      2.53642720	    -11.89579978	    -12.45341317	     13.91955054	     -4.73022879	      0.00000000	    -12.28360737	     -4.41554585	      8.01213359
      0.06666667	      2.87718737	      1.15903448	      3.38135598	     -1.25319612	      0.73848740	      0.34574447	     28.56109178	     -4.17248202	    -11.20843359	    -61.54206177	      2.89999569	    -14.88936911	      0.00000000	     -2.64390182	      2.61641384	    -12.04080001	    -12.40992095	     14.13975216	     -4.72790117	      0.00000000	    -12.24010411	     -4.48172328	      7.92567842
      0.07333333	      3.06786072	      0.98331373	      3.90745733	     -1.24528738	      0.73825291	      0.34533723	     28.56022692	     -4.21189343	    -11.95877523	    -59.43528322	      3.34925525	    -15.37227346	      0.00000000	     -3.73367170	      2.35892312	    -11.69321137	    -11.97678832	     14.81768375	     -4.10644865	      0.00000000	    -12.50162698	     -4.18682339	      7.04679842
      0.08000000	      2.92623772	      1.07753670	      4.05263252	     -1.23786672	      0.73738951	      0.34520788	     29.14020023	     -4.40224199	    -12.18645112	    -57.49194691	      3.56920561	    -15.44812253	      0.00000000	     -4.29598092	      2.43071817	    -11.77752581	    -11.84941521	     15.12917191	     -4.08229005	      0.00000000	    -12.45523515	     -4.24159579	      6.92308550
      0.08666667	      3.05122605	      1.01255384	      4.46331578	     -1.23015258	      0.73689498	      0.34484998	     29.13528393	     -4.50147899	    -12.77292394	    -55.15721657	      3.97110852	    -15.56871949	      0.00000000	     -5.23820104	      2.29486693	    -11.56785460	    -11.54756775	     15.63786949	     -3.75945447	      0.00000000	    -12.66111993	     -4.06697665	      6.36921837
      0.09333333	      2.85832258	      1.21788374	      4.55236648	     -1.22286606	      0.73579488	      0.34472062	     29.68366270	     -4.79468422	    -12.92356529	    -53.00402927	      4.04582945	    -15.49323598	      0.00000000	     -5.67817574	      2.49129774	    -11.72116087	    -11.55611421	     15.86053488	     -3.78185054	      0.00000000	    -12.58806955	     -4.24201241	      6.31957297
      0.10000000	      2.96448760	      1.09154456	      4.98438768	     -1.21512450	      0.73516811	      0.34449012	     29.52473928	     -4.84651269	    -13.66898767	    -50.36227379	      4.62152473	    -15.14860254	      0.00000000	     -6.60781221	      2.25589113	    -11.43971063	    -11.23719662	     16.39499249	     -3.36651781	      0.00000000	    -12.79346473	     -4.01237994	      5.62585000
      0.10666667	      2.81803657	      1.15591569	      5.11467205	     -1.20772007	      0.73407279	      0.34446556	     29.77971838	     -4.93996676	    -13.94438936	    -47.79793062	      4.90202629	    -14.88107659	      0.00000000	     -7.15659831	      2.28523596	    -11.48964014	    -11.13312361	     16.73504151	     -3.34149196	      0.00000000	    -12.76633076	     -4.00936946	      5.47745508
      0.11333333	      2.76567195	      1.20922293	      5.30397558	     -1.20023384	      0.73304139	      0.34439027	     29.82465763	     -5.07536222	    -14.42628688	    -45.09472746	      5.25933895	    -14.35515186	      0.00000000	     -7.79158355	      2.27378174	    -11.51711134	    -11.06661981	     17.05517447	     -3.23383019	      0.00000000	    -12.84779899	     -3.97804867	      5.22580919
      0.12000000	      2.60177973	      1.29957836	      5.43358811	     -1.19280601	      0.73182014	      0.34446019	     29.95988558	     -5.17038552	    -14.74137232	    -42.30554549	      5.55710202	    -13.73501132	      0.00000000	     -8.29120657	      2.31676562	    -11.57719483	    -11.02704049	     17.34336671	     -3.17135383	      0.00000000	    -12.81245952	     -4.01871511	      5.04393817
      0.12666667	      2.33101766	      1.61832718	      5.42198364	     -1.18554806	      0.73027245	      0.34447485	     30.33765442	     -5.50916731	    -14.99880275	    -39.70365217	      5.62710068	    -13.44686218	      0.00000000	     -8.63959291	      2.65770817	    -11.80645566	    -11.08663699	     17.56676341	     -3.21937200	      0.00000000	    -12.70655998	     -4.31816233	      5.02876955
      0.13333333	      2.40859750	      1.49021322	      5.80134768	     -1.17775270	      0.72932944	      0.34445737	     29.87259748	     -5.49796779	    -15.88496252	    -36.59190059	      6.89964448	    -11.08732323	      0.00000000	     -9.35141733	      2.34102652	    -11.74117679	    -11.15682357	     18.02021315	     -2.77625365	      0.00000000	    -12.89948992	     -4.06336089	      4.48964416
      0.14000000	      2.13768376	      1.60587704	      5.80368786	     -1.17032712	      0.72781587	      0.34479465	     30.00032214	     -5.44300830	    -15.97624067	    -33.63176248	      7.00310243	    -10.42216873	      0.00000000	     -9.69229989	      2.42424588	    -11.84722849	    -11.22719973	     18.22115843	     -2.81216873	      0.00000000	    -12.74852031	     -4.15355621	      4.46246857
      0.14666667	      2.09164907	      1.56269565	      5.97990849	     -1.16254984	      0.72655191	      0.34506672	     29.70506592	     -5.32778410	    -16.58129280	    -30.56637972	      7.50761218	     -9.16558760	      0.00000000	    -10.23763559	      2.22689435	    -12.04547495	    -11.37995251	     18.50288898	     -2.75064253	      0.00000000	    -12.81619767	     -4.01723930	      4.31147499
      0.15333333	      1.93056258	      1.62825197	      6.06874234	     -1.15480501	      0.72509705	      0.34544869	     29.56174980	     -5.24202110	    -16.90602292	    -27.60512766	      7.91804146	     -7.85432202	      0.00000000	    -10.65020812	      2.18013193	    -12.13180661	    -11.58538850	     18.75554502	     -2.63395814	      0.00000000	    -12.74519367	     -4.03923085	      4.14042446
      0.16000000	      1.83448854	      1.70051336	      6.29575910	     -1.14692387	      0.72364176	      0.34560314	     29.34386908	     -5.30734144	    -17.58009745	    -24.89061880	      8.79751268	     -5.65690493	      0.00000000	    -11.11358968	      2.08800757	    -12.18898924	    -11.83027359	     19.12464934	     -2.19569309	      0.00000000	    -12.77078807	     -4.01719598	      3.81053460
      0.16666667	      1.62112355	      1.78638538	      6.33099327	     -1.13911212	      0.72201623	      0.34614377	     29.26323066	     -5.12373481	    -17.54544922	    -22.17536483	      8.89383004	     -4.80100364	      0.00000000	    -11.42952287	      2.05091840	    -12.24560060	    -12.12626885	     19.26673792	     -2.23856028	      0.00000000	    -12.64273462	     -4.06923965	      3.77174048
